<svg id="Layer_1" data-name="Layer 1" xmlns="http://www.w3.org/2000/svg" width="114" height="21" viewBox="0 0 114 21"><defs><style>.cls-1{fill:#76b800;}</style></defs><g id="Logo_REPLACE_ME_" data-name="Logo (REPLACE ME)"><path id="Reg" d="M112.42434,16.84161V16.527h.202c.11034,0,.26052.00822.26052.1431,0,.14561-.07737.17152-.20746.17152h-.255m0,.221h.135l.31313.5498h.34348l-.34622-.57228a.31062.31062,0,0,0,.32637-.33948c0-.29955-.20689-.396-.55643-.396h-.50574v1.30773h.29042v-.5498m1.47092-.10236a1.2648,1.2648,0,1,0-1.26175,1.21473,1.19691,1.19691,0,0,0,1.26175-1.21473m-.364,0a.89646.89646,0,0,1-.89772.93517v-.004a.933.933,0,1,1,.89772-.93117Z"/><path id="Eye_Mark" data-name="Eye Mark" class="cls-1" d="M11.84084,6.26618V4.36928c.18417-.01313.37017-.02294.55972-.02888,5.18815-.16306,8.5918,4.45783,8.5918,4.45783s-3.67615,5.106-7.61774,5.106a4.78019,4.78019,0,0,1-1.53378-.24522V7.90689c2.01979.244,2.42581,1.13611,3.64042,3.16013L18.18187,8.79a7.15071,7.15071,0,0,0-5.29451-2.58556,9.79282,9.79282,0,0,0-1.04652.06173m0-6.26618V2.83342c.18623-.01472.37269-.02658.55972-.03331,7.21491-.24307,11.91523,5.917,11.91523,5.917s-5.399,6.56515-11.02355,6.56515a8.30071,8.30071,0,0,1-1.4514-.12781v1.75141a9.55306,9.55306,0,0,0,1.20868.07828c5.23436,0,9.0195-2.67287,12.685-5.83665.60732.48658,3.09544,1.67028,3.60713,2.18914-3.48537,2.91742-11.60724,5.269-16.21171,5.269-.44367,0-.87045-.02682-1.28913-.067V21H31.73532V0Zm0,13.659v1.49544C6.9997,14.29129,5.656,9.25891,5.656,9.25891a10.46556,10.46556,0,0,1,6.18483-2.99273V7.90689L11.8333,7.9061C9.80757,7.6628,8.22471,9.5556,8.22471,9.5556s.88676,3.18638,3.61613,4.1034M3.24242,9.04084a11.98994,11.98994,0,0,1,8.59842-4.67156V2.83342C5.49524,3.34271,0,8.7171,0,8.7171s3.11221,8.9977,11.84084,9.82149V16.90585C5.43555,16.1,3.24242,9.04084,3.24242,9.04084Z"/><path id="NVIDIA" d="M67.45339,3.9942l.00138,13.73137h3.87789V3.99443ZM36.94663,3.97554v13.75h3.91249V7.285l3.031.001a2.85023,2.85023,0,0,1,2.20293.76608c.61342.65367.86377,1.70737.86377,3.63577v6.03769h3.79086V10.12876c0-5.422-3.45619-6.15322-6.8373-6.15322Zm36.75086.01912V17.72557h6.28994c3.35126,0,4.445-.55737,5.628-1.807.83624-.87724,1.37644-2.803,1.37644-4.90752a8.149,8.149,0,0,0-1.25516-4.72413C84.3,4.36947,82.23016,3.99466,79.14014,3.99466Zm3.84678,2.98982h1.66739c2.419,0,3.9834,1.08629,3.9834,3.90483,0,2.81924-1.56443,3.90553-3.9834,3.90553H77.54427ZM61.862,3.99466,58.62555,14.8772,55.52429,3.99535l-4.18622-.00069,4.429,13.73091h5.58928L65.8202,3.99466Zm26.9344,13.73091H92.675V3.99535l-3.87949-.00069Zm10.87126-13.726L94.25256,17.72085h3.82387l.85673-2.42519h6.40858l.811,2.42519h4.15167L104.848,3.99847ZM102.185,6.5029l2.34917,6.42816H99.76167Z"/></g></svg>